<?xml version="1.0" encoding="UTF-8"?><svg id="Layer_1" xmlns="http://www.w3.org/2000/svg" viewBox="0 0 328.18 80.5"><defs><style>.cls-1{fill:#fff;}.cls-2{fill:#602d89;}</style></defs><g><path class="cls-2" d="M89.66,10.13h-1.12c-.65-2-2.2-3.23-4.09-3.23-1.03,0-1.92,.35-2.48,.91-1.21,1.21-1.61,3.21-1.61,5.08,0,3.6,1.74,5.92,4.42,5.92,2.07,0,3.68-1.38,3.88-3.45h1.23l-.19,2.89c-1.6,.8-3.56,1.23-5.58,1.23-4.55,0-6.66-2.97-6.66-6.38,0-4.53,3.58-6.87,7.09-6.87,1.51,0,3.02,.34,4.65,1.03l.45,2.87Z"/><path class="cls-2" d="M103.93,18.81c2.33,0,3.83-2.18,3.83-5.62,0-2.95-1.12-6.29-4.07-6.29-2.41,0-3.96,2.22-3.96,5.67,0,3.68,1.72,6.23,4.2,6.23m.02-12.58c3.82,0,6.7,2.71,6.7,6.33s-2.65,6.92-7.04,6.92c-3.98,0-6.78-2.87-6.78-6.48,0-3.81,3.12-6.77,7.11-6.77"/><path class="cls-2" d="M122,16.52c0,1.18,.24,2.03,2.11,2.03s2.93-.65,3.92-2.59h1.16l-.82,3.27h-10.73v-.67c1.51,.07,1.85-.43,1.85-1.77v-7.93c0-1.1-.24-1.77-1.85-1.68v-.67h6.42v.67c-1.66-.09-2.05,.36-2.05,1.81v7.54Z"/><path class="cls-2" d="M140.33,16.52c0,1.18,.24,2.03,2.11,2.03s2.93-.65,3.92-2.59h1.16l-.82,3.27h-10.73v-.67c1.51,.07,1.85-.43,1.85-1.77v-7.93c0-1.1-.24-1.77-1.85-1.68v-.67h6.42v.67c-1.66-.09-2.05,.36-2.05,1.81v7.54Z"/><path class="cls-2" d="M165.7,6.49v2.67h-1.02c-.49-1.19-1.36-2-3.12-2h-2.82v5.04h2.07c1.75,0,2.41-.41,2.58-1.66h1.23v4.05h-1.23c-.06-.95-.52-1.72-1.98-1.72h-2.67v3.66c0,1.36,.3,2.02,2.2,2.02,2.35,0,3.51-.66,4.51-2.46h1.18l-.71,3.13h-11.68v-.67c1.64,.07,1.98-.39,1.98-1.77v-7.86c0-1.16-.24-1.87-1.98-1.75v-.67h11.46Z"/><path class="cls-2" d="M185.64,10.25h-.86c-.78-2.15-2.3-3.34-4.2-3.34-2.6,0-4.18,2.26-4.18,5.9,0,3.85,2.07,6.01,4.59,6.01,.8,0,1.44-.19,2.22-.63v-3.08c0-1.21-.45-1.76-2.04-1.64v-.67h6.44v.67c-1.42-.09-1.89,.34-1.89,1.7v3.29c-1.53,.69-3.23,1.05-5.08,1.05-4.46,0-7.15-2.37-7.15-6.29,0-3.68,2.33-6.96,7.16-6.96,1.66,0,3.06,.32,4.68,1.05l.28,2.97Z"/><path class="cls-2" d="M206.01,6.49v2.67h-1.03c-.49-1.19-1.36-2-3.12-2h-2.82v5.04h2.07c1.76,0,2.41-.41,2.58-1.66h1.23v4.05h-1.23c-.06-.95-.52-1.72-1.98-1.72h-2.67v3.66c0,1.36,.3,2.02,2.2,2.02,2.35,0,3.51-.66,4.52-2.46h1.18l-.71,3.13h-11.68v-.67c1.64,.07,1.98-.39,1.98-1.77v-7.86c0-1.16-.24-1.87-1.98-1.75v-.67h11.46Z"/><path class="cls-2" d="M231.71,18.81c2.33,0,3.83-2.18,3.83-5.62,0-2.95-1.12-6.29-4.07-6.29-2.41,0-3.96,2.22-3.96,5.67,0,3.68,1.72,6.23,4.2,6.23m.02-12.58c3.82,0,6.7,2.71,6.7,6.33s-2.65,6.92-7.04,6.92c-3.98,0-6.77-2.87-6.77-6.48,0-3.81,3.12-6.77,7.11-6.77"/><path class="cls-2" d="M256.47,6.49v2.72h-1.08c-.54-1.23-1.29-2.05-2.74-2.05h-2.88v5.19h1.96c1.45,0,1.98-.45,2.17-1.87h1.05v4.39h-1.05c-.17-1.34-.75-1.85-2.17-1.85h-1.96v3.82c0,1.14,.28,1.81,1.92,1.7v.67h-6.36v-.67c1.5,.02,1.92-.3,1.92-1.81v-7.86c0-1.23-.3-1.79-1.92-1.72v-.67h11.14Z"/><path class="cls-2" d="M277.01,18.55c1.46,.05,1.92-.3,1.92-1.74V7.17h-.41c-1.89,0-2.61,.49-3.36,2.22h-1.01v-2.89h12.07v2.89h-1.01c-.75-1.74-1.47-2.22-3.36-2.22h-.41v9.65c0,1.31,.34,1.81,1.92,1.74v.67h-6.37v-.67Z"/><path class="cls-2" d="M297.88,16.81c0,1.25,.3,1.79,1.96,1.74v.67h-6.42v-.67c1.59,.07,1.94-.43,1.94-1.68v-7.99c0-1.38-.41-1.77-1.94-1.72v-.67h6.42v.67c-1.68-.06-1.96,.34-1.96,2.09v3h6.05v-3.42c0-1.04-.23-1.79-1.9-1.68v-.67h6.44v.67c-1.62-.08-2.02,.34-2.02,1.83v7.86c0,1.25,.39,1.81,2.02,1.7v.67h-6.44v-.67c1.45,.04,1.9-.24,1.9-1.72v-3.66h-6.05v3.64Z"/><path class="cls-2" d="M327.03,6.49v2.67h-1.03c-.49-1.19-1.37-2-3.12-2h-2.82v5.04h2.07c1.75,0,2.41-.41,2.58-1.66h1.23v4.05h-1.23c-.06-.95-.52-1.72-1.98-1.72h-2.67v3.66c0,1.36,.3,2.02,2.2,2.02,2.35,0,3.51-.66,4.51-2.46h1.18l-.71,3.13h-11.68v-.67c1.64,.07,1.98-.39,1.98-1.77v-7.86c0-1.16-.24-1.87-1.98-1.75v-.67h11.46Z"/><path class="cls-2" d="M88.87,62.7c0,3.99,1.78,5.45,5.83,5.45v2.05h-17.16v-2.05c4.69,0,5.67-2.05,5.67-5.61v-21.8c0-3.78-1.68-5.29-5.67-5.29v-2.05h17.16v2.05c-3.72,0-5.83,1.24-5.83,5.34v9.17h19.97v-9.61c0-3.02-1.67-4.91-5.24-4.91v-2.05h16.68v2.05c-4.37,0-5.78,1.78-5.78,5.61v21.26c0,3.78,1.03,5.83,5.78,5.83v2.05h-16.68v-2.05c3.67,0,5.24-1.89,5.24-5.23v-10.15h-19.97v9.93Z"/><path class="cls-2" d="M134.46,68.79c4.21,0,6.8-2.97,6.8-7.66s-1.84-13.82-7.94-13.82c-4.05,0-6.69,2.27-6.69,8.53,0,4.8,2.27,12.95,7.83,12.95m-.92-23.47c7.4,0,12.58,5.18,12.58,12.52s-5.23,12.95-12.14,12.95-12.47-5.88-12.47-12.9,5.34-12.57,12.03-12.57"/><path class="cls-2" d="M156.29,63.77c0,2.7,.92,4.32,3.35,4.48v1.94h-11.61v-1.94c2.7-.16,3.73-1.78,3.73-4.1v-25.69l-3.73-2.05v-1.24l6.91-2.48h1.35v31.09Z"/><path class="cls-2" d="M165.02,51.04c-1.4-3.18-2.16-3.18-3.89-3.18v-1.94h11.76v1.94c-3.18,.11-3.89,1.3-2.65,4.1l5.56,12.74,4.64-11.82c1.08-2.81,.32-4.86-2.97-5.02v-1.94h9.34v1.94c-2.05,.43-2.7,1.35-3.78,4.1l-8.96,22.77c-1.56,3.94-3.83,5.78-7.07,5.78-2.53,0-4.32-1.24-4.32-3.08,0-1.24,1.03-2.21,2.32-2.21,1.89,0,1.89,1.73,3.83,1.73,2.05,0,3.35-1.84,4.75-6.48l-8.58-19.43Z"/><path class="cls-2" d="M235.61,43.86c-2.48-5.4-7.45-8.8-12.79-8.8-7.34,0-14.25,5.45-14.25,16.35,0,9.18,5.4,17.11,15,17.11,6.05,0,10.69-2.97,12.04-9.07h2l-.27,8.48c-4.1,1.67-10.36,2.91-14.68,2.91-12.09,0-20.62-7.66-20.62-18.51,0-9.44,7.02-19.59,21.37-19.59,3.99,0,8.15,.86,12.63,2.54l1.3,8.58h-1.73Z"/><path class="cls-2" d="M250.29,63.07c0,4.05,.75,5.18,5.51,5.18v1.94h-14.03v-1.94c2.16,0,3.99-1.08,3.99-4.15v-12.63l-3.99-2v-1.24l7.18-2.91h1.35v5.34h.11c2.43-3.99,3.78-5.13,6.58-5.13,2.38,0,3.99,2,3.99,3.08,0,.27-.54,3.51-2.21,3.51-1.83,0-2.27-2.53-4.05-2.53-1.3,0-2.27,.92-4.43,3.99v9.5Z"/><path class="cls-2" d="M275.54,68.79c4.21,0,6.8-2.97,6.8-7.66s-1.83-13.82-7.93-13.82c-4.05,0-6.69,2.27-6.69,8.53,0,4.8,2.27,12.95,7.83,12.95m-.92-23.47c7.39,0,12.57,5.18,12.57,12.52s-5.23,12.95-12.14,12.95-12.47-5.88-12.47-12.9,5.34-12.57,12.04-12.57"/><path class="cls-2" d="M305.78,53.47h-1.67c-.81-4.26-2.54-6.15-5.5-6.15-2.54,0-4.05,1.3-4.05,3.62,0,4.05,8.2,5.02,11.28,8.1,1.13,1.13,1.73,2.86,1.73,4.64,0,4.42-3.18,7.13-8.26,7.13-2.7,0-5.89-.7-7.93-1.73v-6.8h1.78c.54,4.21,2.54,6.53,5.77,6.53,2.86,0,4.91-1.62,4.91-3.83,0-4.15-7.13-4.05-11.55-8.47-1.08-1.08-1.67-2.91-1.67-4.48,0-3.94,3.24-6.69,7.88-6.69,2.86,0,5.29,.75,7.29,2.32v5.83Z"/><path class="cls-2" d="M326.4,53.47h-1.67c-.81-4.26-2.54-6.15-5.5-6.15-2.54,0-4.05,1.3-4.05,3.62,0,4.05,8.2,5.02,11.28,8.1,1.14,1.13,1.73,2.86,1.73,4.64,0,4.42-3.18,7.13-8.26,7.13-2.7,0-5.88-.7-7.93-1.73v-6.8h1.78c.54,4.21,2.54,6.53,5.78,6.53,2.86,0,4.91-1.62,4.91-3.83,0-4.15-7.12-4.05-11.55-8.47-1.08-1.08-1.67-2.91-1.67-4.48,0-3.94,3.24-6.69,7.88-6.69,2.86,0,5.29,.75,7.29,2.32v5.83Z"/></g><g><path class="cls-1" d="M64.89,7.53l-.03-.74h-.74C44.04,6.8,33.15,.67,33.04,.61l-.39-.22-.38,.22c-.11,.06-11,6.19-31.07,6.19H.47l-.03,.74c-.05,1.13-1.21,27.82,5.65,42.66,3.97,8.58,11.01,20.63,26.32,26.16l.26,.09,.26-.09c15.31-5.53,22.35-17.58,26.32-26.16,6.86-14.84,5.7-41.53,5.65-42.66"/><path class="cls-2" d="M33.55,43.57v2.21c6.21-.49,11.16-5.47,11.6-11.69h-2.2c-.43,5-4.41,9.01-9.4,9.48m0-20.76c4.99,.47,8.96,4.48,9.4,9.48h2.2c-.45-6.21-5.39-11.19-11.59-11.67v2.2Zm-5.31-3.29c1.12-.37,2.29-.6,3.51-.68V4.38c-4.16,1.82-13.62,5.14-28.03,5.52-.11,7.16,.1,27.23,5.45,38.8,3.55,7.7,9.74,18.33,22.58,23.76v-24.91c-1.22-.09-2.39-.31-3.51-.68l-1.52,3.78c-.14,.35-.47,.56-.83,.56-.11,0-.22-.02-.33-.06-.46-.18-.68-.7-.49-1.16l1.52-3.78c-1.22-.58-2.34-1.33-3.34-2.21l-3.84,3.85c-.17,.17-.4,.26-.63,.26s-.46-.09-.63-.26c-.35-.34-.35-.91,0-1.26l3.84-3.85c-.83-.94-1.54-1.99-2.11-3.12l-3.75,1.59c-.11,.05-.23,.07-.35,.07-.35,0-.68-.21-.82-.54-.19-.45,.02-.98,.47-1.17l3.75-1.59c-.43-1.23-.7-2.53-.78-3.88H10.34c-.49,0-.89-.4-.89-.9,0-.49,.4-.89,.89-.89h8.06c.08-1.35,.35-2.65,.78-3.87l-3.75-1.59c-.45-.19-.67-.72-.47-1.17,.19-.45,.72-.67,1.17-.47l3.75,1.59c.56-1.13,1.27-2.17,2.09-3.11l-3.84-3.84c-.35-.35-.35-.91,0-1.26s.91-.35,1.26,0l3.84,3.84c1.01-.89,2.13-1.64,3.36-2.22l-1.53-3.79c-.18-.46,.04-.98,.49-1.16,.46-.19,.98,.04,1.16,.49l1.52,3.78Zm3.51,24.06c-5.07-.39-9.14-4.43-9.57-9.49h-2.21c.44,6.28,5.49,11.3,11.78,11.7v-2.21Zm0-20.78v-2.2c-6.29,.4-11.33,5.41-11.78,11.68h2.21c.44-5.06,4.5-9.09,9.57-9.48m24.41,25.9c5.35-11.57,5.56-31.64,5.45-38.8-14.44-.38-23.91-3.72-28.06-5.54v14.47c1.23,.08,2.41,.31,3.54,.69l1.52-3.78c.18-.46,.7-.68,1.16-.49,.46,.18,.68,.7,.49,1.16l-1.53,3.79c1.23,.58,2.35,1.33,3.36,2.22l3.84-3.84c.35-.35,.91-.35,1.26,0,.35,.35,.35,.91,0,1.26l-3.84,3.84c.83,.94,1.53,1.98,2.09,3.11l3.75-1.59c.45-.19,.98,.02,1.17,.47,.19,.45-.02,.98-.47,1.17l-3.75,1.59c.43,1.22,.7,2.52,.78,3.87h5.84s2.22,0,2.22,0c.49,0,.89,.4,.89,.89s-.4,.89-.89,.89h-8.06c-.08,1.36-.35,2.66-.78,3.88l3.75,1.59c.45,.19,.67,.71,.47,1.17-.14,.34-.47,.54-.82,.54-.12,0-.23-.02-.35-.07l-3.75-1.59c-.57,1.13-1.27,2.18-2.11,3.12l3.84,3.85c.35,.35,.35,.91,0,1.26-.17,.17-.4,.26-.63,.26s-.46-.09-.63-.26l-3.84-3.85c-1,.88-2.13,1.63-3.34,2.21l1.52,3.78c.18,.46-.04,.98-.49,1.16-.11,.04-.22,.06-.33,.06-.35,0-.69-.21-.83-.56l-1.52-3.78c-1.12,.37-2.31,.6-3.54,.69v24.92c12.87-5.43,19.05-16.07,22.61-23.77m1.94,.97c-3.86,8.36-10.69,20.08-25.43,25.52-14.73-5.43-21.57-17.15-25.43-25.52C1.08,36.37,1.5,12.53,1.64,8.03c18.37-.13,28.89-5.13,31.02-6.25,2.13,1.12,12.65,6.12,31.03,6.25,.14,4.5,.55,28.33-5.59,41.63m7.12-42.44l-.04-.74h-.74C44.16,6.48,33.16,.29,33.05,.22l-.39-.22-.39,.22c-.11,.06-11.11,6.25-31.39,6.25H.14l-.03,.74c-.05,1.14-1.22,28.1,5.7,43.1,4.01,8.67,11.12,20.84,26.58,26.43l.26,.09,.27-.09c15.47-5.59,22.58-17.76,26.58-26.43,6.93-14.99,5.76-41.95,5.71-43.1"/></g></svg>